####
#
# OBJ File Generated by Meshlab
#
####
# Object box.obj
#
# Vertices: 56
# Faces: 114
#
####
mtllib ./box.obj.mtl

vn 3.056231 -2.004685 -2.181479
v 0.665430 -0.274931 0.649061 0.752941 0.752941 0.752941
vn -1.681365 3.301995 -2.748537
v 0.665430 0.431719 0.640202 0.752941 0.752941 0.752941
vn 0.861275 -1.189239 1.823096
v 0.665430 -0.441171 0.794984 0.752941 0.752941 0.752941
vn -0.000000 3.301996 2.791120
v 0.665430 0.431719 0.794984 0.752941 0.752941 0.752941
vn -2.227242 -0.870868 -2.661085
v 0.665430 -0.256975 0.641270 0.752941 0.752941 0.752941
vn 1.649214 0.000000 5.582240
v 0.665430 -0.433317 0.794984 0.752941 0.752941 0.752941
vn -3.364298 -0.000000 5.582246
v 0.665430 -0.426568 0.794984 0.752941 0.752941 0.752941
vn -3.232689 -0.202389 -2.780595
v 0.665430 -0.246754 0.640202 0.752941 0.752941 0.752941
vn 3.257512 -1.483928 -2.489506
v 0.665430 -0.264817 0.644205 0.752941 0.752941 0.752941
vn 3.364295 0.000000 5.582242
v 0.665430 -0.437244 0.794984 0.752941 0.752941 0.752941
vn 3.056231 -2.004682 -2.181473
v 0.671126 -0.274931 0.649061 0.752941 0.752941 0.752941
vn 1.682149 1.650996 -1.395559
v 0.671126 0.431719 0.640202 0.752941 0.752941 0.752941
vn 0.861275 -1.189236 0.427538
v 0.671126 -0.441171 0.794984 0.752941 0.752941 0.752941
vn 0.000786 1.650999 1.438145
v 0.671126 0.431719 0.794984 0.752941 0.752941 0.752941
vn 3.049485 -0.870867 -2.661080
v 0.671126 -0.256975 0.641270 0.752941 0.752941 0.752941
vn 3.364299 0.000000 2.791124
v 0.671126 -0.433317 0.794984 0.752941 0.752941 0.752941
vn 3.364298 0.000000 2.791124
v 0.671126 -0.426568 0.794984 0.752941 0.752941 0.752941
vn 3.232688 -0.202389 -2.780593
v 0.671126 -0.246754 0.640202 0.752941 0.752941 0.752941
vn 3.257512 -1.483924 -2.489499
v 0.671126 -0.264817 0.644205 0.752941 0.752941 0.752941
vn 3.364296 0.000000 2.791124
v 0.671126 -0.437244 0.794984 0.752941 0.752941 0.752941
vn -3.363512 -0.000000 -4.144099
v 0.665430 0.423885 0.640202 0.752941 0.752941 0.752941
vn -1.682150 -0.000000 5.582242
v 0.665430 0.423885 0.794984 0.752941 0.752941 0.752941
vn 3.364298 0.000000 -2.791117
v 0.671126 0.423885 0.640202 0.752941 0.752941 0.752941
vn 1.682933 0.000000 2.833713
v 0.671126 0.423885 0.794984 0.752941 0.752941 0.752941
vn 3.056231 -2.004683 -2.181473
v -0.664637 -0.274931 0.649061 0.752941 0.752941 0.752941
vn 1.682149 3.301995 -2.791119
v -0.664637 0.431719 0.640202 0.752941 0.752941 0.752941
vn 0.861275 -1.189240 1.823095
v -0.664637 -0.441171 0.794984 0.752941 0.752941 0.752941
vn 1.682149 3.301994 2.791123
v -0.664637 0.431719 0.794984 0.752941 0.752941 0.752941
vn 3.049494 -0.870872 -2.661079
v -0.664637 -0.256976 0.641269 0.752941 0.752941 0.752941
vn 3.364299 0.000000 5.582245
v -0.664637 -0.433317 0.794984 0.752941 0.752941 0.752941
vn 3.364298 0.000000 5.582248
v -0.664637 -0.426568 0.794984 0.752941 0.752941 0.752941
vn 3.232688 -0.202390 -2.780591
v -0.664637 -0.246755 0.640202 0.752941 0.752941 0.752941
vn 3.257516 -1.483929 -2.489497
v -0.664637 -0.264817 0.644204 0.752941 0.752941 0.752941
vn 3.364300 0.000000 5.582248
v -0.664637 -0.437244 0.794984 0.752941 0.752941 0.752941
vn -3.056231 -2.004689 -2.181481
v -0.670333 -0.274931 0.649061 0.752941 0.752941 0.752941
vn -1.682150 1.650996 -1.395560
v -0.670333 0.431719 0.640202 0.752941 0.752941 0.752941
vn -0.861275 -1.189239 0.427535
v -0.670333 -0.441171 0.794984 0.752941 0.752941 0.752941
vn -1.682149 1.650998 1.395561
v -0.670333 0.431719 0.794984 0.752941 0.752941 0.752941
vn -3.049494 -0.870874 -2.661082
v -0.670333 -0.256976 0.641269 0.752941 0.752941 0.752941
vn -3.364299 -0.000000 2.791121
v -0.670333 -0.433317 0.794984 0.752941 0.752941 0.752941
vn -3.364298 -0.000000 2.791121
v -0.670333 -0.426568 0.794984 0.752941 0.752941 0.752941
vn -3.232689 -0.202390 -2.780590
v -0.670333 -0.246755 0.640202 0.752941 0.752941 0.752941
vn -3.257516 -1.483933 -2.489504
v -0.670333 -0.264817 0.644204 0.752941 0.752941 0.752941
vn -3.364300 -0.000000 2.791121
v -0.670333 -0.437244 0.794984 0.752941 0.752941 0.752941
vn 3.364298 0.000000 -4.186671
v -0.664637 0.423885 0.640202 0.752941 0.752941 0.752941
vn 3.364297 0.000000 5.582245
v -0.664637 0.423885 0.794984 0.752941 0.752941 0.752941
vn -3.364298 -0.000000 -2.791120
v -0.670333 0.423885 0.640202 0.752941 0.752941 0.752941
vn -3.364298 -0.000000 2.791126
v -0.670333 0.423885 0.794984 0.752941 0.752941 0.752941
vn 1.682150 1.650998 -1.395560
v 0.664316 0.413682 -0.000001 0.752941 0.752941 0.752941
vn 1.682149 -1.650998 -1.395560
v 0.664316 -0.440736 -0.000001 0.752941 0.752941 0.752941
vn -1.682149 -1.650998 -1.395561
v -0.664316 -0.440736 -0.000001 0.752941 0.752941 0.752941
vn -1.682148 1.650998 -1.395561
v -0.664316 0.413682 -0.000001 0.752941 0.752941 0.752941
vn 1.682149 1.650998 1.395561
v 0.664316 0.413682 0.794670 0.752941 0.752941 0.752941
vn 1.682148 -1.650998 1.395561
v 0.664316 -0.440736 0.794670 0.752941 0.752941 0.752941
vn -1.682149 -1.650998 1.395560
v -0.664316 -0.440736 0.794669 0.752941 0.752941 0.752941
vn -1.682149 1.650998 1.395560
v -0.664316 0.413682 0.794669 0.752941 0.752941 0.752941
# 56 vertices, 0 vertices normals


usemtl material_0
vt 0.000000 0.000000
f 10/1/10 9/1/9 5/1/5
f 10/1/10 5/1/5 6/1/6
f 6/1/6 7/1/7 8/1/8
f 6/1/6 8/1/8 5/1/5
f 3/1/3 1/1/1 9/1/9
f 3/1/3 9/1/9 10/1/10
vt 0.012580 0.689149
vt 0.012580 0.763248
vt 0.009409 0.763248
f 24/2/24 23/3/23 12/4/12
vt 0.009409 0.689148
f 24/2/24 12/4/12 14/5/14
vt 0.361050 0.689148
vt 0.291274 0.761331
vt 0.288101 0.762736
f 20/6/20 19/7/19 15/8/15
vt 0.359460 0.689148
f 20/6/20 15/8/15 16/9/16
vt 0.283965 0.763247
f 16/9/16 15/8/15 18/10/18
vt 0.356729 0.689148
f 16/9/16 18/10/18 17/11/17
vt 0.362639 0.689148
vt 0.295367 0.759007
f 13/12/13 11/13/11 19/7/19
f 13/12/13 19/7/19 20/6/20
vt 0.530300 0.566799
vt 0.528973 0.566831
vt 0.527637 0.509961
f 1/14/1 11/15/11 13/16/13
vt 0.528963 0.509930
f 1/14/1 13/16/13 3/17/3
vt 0.529039 0.569590
vt 0.530365 0.569558
vt 0.530414 0.571592
f 19/18/19 9/19/9 5/20/5
vt 0.529089 0.571624
f 19/18/19 5/20/5 15/21/15
f 11/15/11 1/14/1 9/19/9
f 11/15/11 9/19/9 19/18/19
vt 0.002596 0.630258
vt 0.000680 0.630255
vt 0.000681 0.628908
f 10/22/10 20/23/20 16/24/16
vt 0.002597 0.628908
f 10/22/10 16/24/16 6/25/6
vt 0.002596 0.631603
f 20/23/20 10/22/10 3/26/3
vt 0.000679 0.631602
f 20/23/20 3/26/3 13/27/13
vt 0.533005 0.733025
vt 0.534327 0.733003
vt 0.534334 0.734854
f 23/28/23 21/29/21 2/30/2
vt 0.533021 0.734866
f 23/28/23 2/30/2 12/31/12
vt 0.000683 0.626597
vt 0.002596 0.626597
f 17/32/17 7/33/7 6/25/6
f 17/32/17 6/25/6 16/24/16
vt 0.002629 0.335562
vt 0.000716 0.335561
vt 0.000717 0.332880
f 22/34/22 24/35/24 14/36/14
vt 0.002630 0.332881
f 22/34/22 14/36/14 4/37/4
vt 0.530473 0.574034
vt 0.529148 0.574066
f 8/38/8 18/39/18 15/21/15
f 8/38/8 15/21/15 5/20/5
vt 0.474183 0.655170
vt 0.472367 0.655170
vt 0.472367 0.595674
f 4/40/4 14/41/14 12/42/12
vt 0.474183 0.595673
f 4/40/4 12/42/12 2/43/2
f 7/1/7 22/1/22 21/1/21
f 7/1/7 21/1/21 8/1/8
f 17/11/17 18/10/18 23/3/23
f 17/11/17 23/3/23 24/2/24
f 18/39/18 8/38/8 21/29/21
f 18/39/18 21/29/21 23/28/23
f 7/33/7 17/32/17 24/35/24
f 7/33/7 24/35/24 22/34/22
f 34/1/34 33/1/33 29/1/29
f 34/1/34 29/1/29 30/1/30
f 30/1/30 29/1/29 32/1/32
f 30/1/30 32/1/32 31/1/31
f 27/1/27 25/1/25 33/1/33
f 27/1/27 33/1/33 34/1/34
vt 0.011996 0.765830
vt 0.008259 0.765762
vt 0.009838 0.678417
f 48/44/48 38/45/38 36/46/36
vt 0.013575 0.678485
f 48/44/48 36/46/36 47/47/47
vt 0.422758 0.770201
vt 0.420885 0.770167
vt 0.338336 0.684956
f 44/48/44 40/49/40 39/50/39
vt 0.342047 0.686680
f 44/48/44 39/50/39 43/51/43
vt 0.417666 0.770109
vt 0.333472 0.684265
f 40/49/40 41/52/41 42/53/42
f 40/49/40 42/53/42 39/50/39
vt 0.424631 0.770234
f 37/54/37 44/48/44 43/51/43
vt 0.346818 0.689505
f 37/54/37 43/51/43 35/55/35
vt 0.842926 0.567971
vt 0.843936 0.511362
vt 0.845256 0.511385
f 25/56/25 27/57/27 37/58/37
vt 0.844246 0.567992
f 25/56/25 37/58/37 35/59/35
vt 0.844207 0.570734
vt 0.844188 0.572753
vt 0.842870 0.572744
f 43/60/43 39/61/39 29/62/29
vt 0.842889 0.570719
f 43/60/43 29/62/29 33/63/33
f 33/63/33 25/56/25 35/59/35
f 33/63/33 35/59/35 43/60/43
vt 0.449332 0.630312
vt 0.449332 0.628961
vt 0.451250 0.628961
f 34/64/34 30/65/30 40/66/40
vt 0.451253 0.630310
f 34/64/34 40/66/40 44/67/44
vt 0.451255 0.631661
vt 0.449332 0.631664
f 44/67/44 37/68/37 27/69/27
f 44/67/44 27/69/27 34/64/34
vt 0.844037 0.733017
vt 0.844038 0.734865
vt 0.842719 0.734866
f 47/70/47 36/71/36 26/72/26
vt 0.842720 0.733016
f 47/70/47 26/72/26 45/73/45
vt 0.451247 0.626647
f 41/74/41 40/66/40 30/65/30
vt 0.449333 0.626648
f 41/74/41 30/65/30 31/75/31
vt 0.449366 0.335612
vt 0.449366 0.332931
vt 0.451279 0.332932
f 46/76/46 28/77/28 38/78/38
vt 0.451278 0.335612
f 46/76/46 38/78/38 48/79/48
vt 0.842858 0.575173
f 32/80/32 29/62/29 39/61/39
vt 0.844174 0.575177
f 32/80/32 39/61/39 42/81/42
vt 0.898346 0.655170
vt 0.898346 0.595674
vt 0.900162 0.595674
f 28/82/28 26/83/26 36/84/36
vt 0.900162 0.655170
f 28/82/28 36/84/36 38/85/38
f 31/1/31 32/1/32 45/1/45
f 31/1/31 45/1/45 46/1/46
f 41/52/41 48/44/48 47/47/47
f 41/52/41 47/47/47 42/53/42
f 42/81/42 47/70/47 45/73/45
f 42/81/42 45/73/45 32/80/32
f 31/75/31 46/76/46 48/79/48
f 31/75/31 48/79/48 41/74/41
f 6/25/6 7/33/7 31/75/31
f 6/25/6 31/75/31 30/65/30
f 6/25/6 30/65/30 34/64/34
f 6/25/6 34/64/34 10/22/10
f 3/26/3 10/22/10 34/64/34
f 3/26/3 34/64/34 27/69/27
f 7/33/7 22/34/22 46/76/46
f 7/33/7 46/76/46 31/75/31
vt 0.894962 0.476714
vt 0.455034 0.476714
vt 0.455034 0.008302
f 53/86/53 54/87/54 50/88/50
vt 0.894962 0.008302
f 53/86/53 50/88/50 49/89/49
vt 0.462512 0.491040
vt 0.910345 0.491040
vt 0.918275 0.837955
f 54/90/54 55/91/55 51/92/51
vt 0.462211 0.837955
f 54/90/54 51/92/51 50/93/50
vt 0.897209 0.478736
vt 0.459857 0.478736
vt 0.459857 0.005822
f 55/94/55 56/95/56 52/96/52
vt 0.897209 0.005822
f 55/94/55 52/96/52 51/97/51
vt 0.912472 0.839913
vt 0.463335 0.839913
vt 0.463335 0.492271
f 56/98/56 53/99/53 49/100/49
vt 0.912472 0.492271
f 56/98/56 49/100/49 52/101/52
vt 0.002457 0.326143
vt 0.002457 -0.000004
vt 0.446694 -0.000004
f 49/102/49 50/103/50 51/104/51
vt 0.446695 0.326143
f 49/102/49 51/104/51 52/105/52
vt 0.502127 0.225091
vt 0.704918 0.225091
vt 0.704918 0.534595
f 56/106/56 55/107/55 54/108/54
vt 0.502127 0.534595
f 56/106/56 54/108/54 53/109/53
f 46/76/46 22/34/22 4/37/4
f 46/76/46 4/37/4 28/77/28
f 28/82/28 4/40/4 2/43/2
f 28/82/28 2/43/2 26/83/26
f 45/1/45 26/1/26 28/1/28
f 45/1/45 28/1/28 46/1/46
f 21/1/21 24/1/24 14/1/14
f 21/1/21 14/1/14 2/1/2
f 2/30/2 21/29/21 45/73/45
f 2/30/2 45/73/45 26/72/26
# 114 faces, 109 coords texture

# End of File